[Header]
FileType HTR
DataType HTRS
FileVersion 1
NumSegments 81
NumFrames 2
DataFrameRate 30
EulerRotationOrder ZYX
CalibrationUnits mm
RotationUnits Degrees
GlobalAxisofGravity Y
BoneLengthAxis Y
ScaleFactor 1.0
[SegmentNames&Hierarchy]
Hips	GLOBAL
LeftUpLeg	Hips
LeftLeg	LeftUpLeg
LeftFoot	LeftLeg
LeftToeBase	LeftFoot
LeftToeEnd	LeftToeBase
LeftLegRoll	LeftLeg
LeftUpLegRoll	LeftUpLeg
Spine	Hips
Spine1	Spine
Spine2	Spine1
LeftShoulder	Spine2
LeftArm	LeftShoulder
LeftForeArm	LeftArm
LeftForeArmRoll	LeftForeArm
LeftHand	LeftForeArm
LeftHandThumb1	LeftHand
LeftHandThumb2	LeftHandThumb1
LeftHandThumb3	LeftHandThumb2
LeftHandThumb4	LeftHandThumb3
LeftHandIndex1	LeftHand
LeftHandIndex2	LeftHandIndex1
LeftHandIndex3	LeftHandIndex2
LeftHandIndex4	LeftHandIndex3
LeftHandMiddle1	LeftHand
LeftHandMiddle2	LeftHandMiddle1
LeftHandMiddle3	LeftHandMiddle2
LeftHandMiddle4	LeftHandMiddle3
LeftHandRing1	LeftHand
LeftHandRing2	LeftHandRing1
LeftHandRing3	LeftHandRing2
LeftHandRing4	LeftHandRing3
LeftHandPinky1	LeftHand
LeftHandPinky2	LeftHandPinky1
LeftHandPinky3	LeftHandPinky2
LeftHandPinky4	LeftHandPinky3
LH_WP	LeftHand
LeftArmRoll	LeftArm
RightShoulder	Spine2
RightArm	RightShoulder
RightForeArm	RightArm
RightHand	RightForeArm
RightHandThumb1	RightHand
RightHandThumb2	RightHandThumb1
RightHandThumb3	RightHandThumb2
RightHandThumb4	RightHandThumb3
RightHandIndex1	RightHand
RightHandIndex2	RightHandIndex1
RightHandIndex3	RightHandIndex2
RightHandIndex4	RightHandIndex3
RightHandMiddle1	RightHand
RightHandMiddle2	RightHandMiddle1
RightHandMiddle3	RightHandMiddle2
RightHandMiddle4	RightHandMiddle3
RightHandRing1	RightHand
RightHandRing2	RightHandRing1
RightHandRing3	RightHandRing2
RightHandRing4	RightHandRing3
RightHandPinky1	RightHand
RightHandPinky2	RightHandPinky1
RightHandPinky3	RightHandPinky2
RightHandPinky4	RightHandPinky3
RH_WP	RightHand
RightForeArmRoll	RightForeArm
RightArmRoll	RightArm
Neck	Spine2
Neck1	Neck
Head	Neck1
Jaw	Head
L_Eye	Head
R_Eye_Socket	Head
L_Eye_Socket	Head
R_Eye	Head
BK_WEP1	Spine2
RightUpLeg	Hips
RightLeg	RightUpLeg
RightFoot	RightLeg
RightToeBase	RightFoot
RightToeEnd	RightToeBase
RightLegRoll	RightLeg
RightUpLegRoll	RightUpLeg
[BasePosition]
Hips	0	0	0	-90	-0	90	1
LeftUpLeg	0	0	0	0.1245552539	2.943081661	177.8888274	1
LeftLeg	0	0	0	-1.553056268e-018	-0.4645708947	-3.190265207	1
LeftFoot	0	0	0	-3.427050049	1.138743235	66.87228657	1
LeftToeBase	0	0	0	-0.1150285401	1.405135968	23.664964	1
LeftToeEnd	0	0	0	0	86.14893154	4.67902715	1
LeftLegRoll	0	0	0	0	-0.0003937979005	-0.0001763048027	1
LeftUpLegRoll	0	0	0	-7.231744079e-028	1.685187608e-005	2.666244888e-005	1
Spine	0	0	0	0	0	-3.518269458	1
Spine1	0	0	0	0	-0	7.885175398	1
Spine2	0	0	0	0	0	-0.09285174208	1
LeftShoulder	0	0	0	160.7860865	59.06322903	63.61338722	1
LeftArm	0	0	0	2.904619295	-26.91541272	-17.55355673	1
LeftForeArm	0	0	0	-90.22254753	-4.753527924	8.383736267	1
LeftForeArmRoll	0	0	0	0	0	0	1
LeftHand	0	0	0	90	-0	0	1
LeftHandThumb1	0	0	0	108.0365432	-19.14265923	-11.8633769	1
LeftHandThumb2	0	0	0	-15.63070336	0.2480216413	-4.679087203	1
LeftHandThumb3	0	0	0	-0.5621291509	1.199440794	-4.464397336	1
LeftHandThumb4	0	0	0	0	0	0	1
LeftHandIndex1	0	0	0	-0.1287480184	2.273223042	-5.916767355	1
LeftHandIndex2	0	0	0	0	0	0	1
LeftHandIndex3	0	0	0	0	0	0	1
LeftHandIndex4	0	0	0	0.06487671692	1.045318787	6.79153565	1
LeftHandMiddle1	0	0	0	-0.1873173809	2.298574433	-7.334490242	1
LeftHandMiddle2	0	0	0	0	0	0	1
LeftHandMiddle3	0	0	0	0	0	0	1
LeftHandMiddle4	0	0	0	0.1011317606	1.031425995	10.25668623	1
LeftHandRing1	0	0	0	-0.2038904391	2.187828672	-7.999827968	1
LeftHandRing2	0	0	0	0	0	0	1
LeftHandRing3	0	0	0	0	0	0	1
LeftHandRing4	0	0	0	0.1270826821	1.220105684	11.26838389	1
LeftHandPinky1	0	0	0	-0.1150589234	1.798482907	-6.335472682	1
LeftHandPinky2	0	0	0	0	0	0	1
LeftHandPinky3	0	0	0	0	0	0	1
LeftHandPinky4	0	0	0	0.09523892401	1.784551098	6.714729621	1
LH_WP	0	0	0	4.792186366e-012	2.776477095	-2.674328027	1
LeftArmRoll	0	0	0	0	2.176196996e-005	0	1
RightShoulder	0	0	0	160.7860865	59.06322903	-116.3866128	1
RightArm	0	0	0	2.904619295	-26.91541272	-17.55355673	1
RightForeArm	0	0	0	-90.22254753	-4.753527924	8.383736267	1
RightHand	0	0	0	90	-0	0	1
RightHandThumb1	0	0	0	108.0365432	-19.14265923	-11.8633769	1
RightHandThumb2	0	0	0	-15.63070336	0.2480216413	-4.679087203	1
RightHandThumb3	0	0	0	-0.5621291509	1.199440794	-4.464397336	1
RightHandThumb4	0	0	0	1.20741827e-006	-0	0	1
RightHandIndex1	0	0	0	-0.1287480183	2.273223042	-5.916767355	1
RightHandIndex2	0	0	0	0	0	0	1
RightHandIndex3	0	0	0	0	0	0	1
RightHandIndex4	0	0	0	0.06487671641	1.045318787	6.79153565	1
RightHandMiddle1	0	0	0	-0.187317381	2.298574433	-7.334490242	1
RightHandMiddle2	0	0	0	0	0	0	1
RightHandMiddle3	0	0	0	0	0	0	1
RightHandMiddle4	0	0	0	0.1011317605	1.031425995	10.25668623	1
RightHandRing1	0	0	0	-0.2038904391	2.187828672	-7.999827968	1
RightHandRing2	0	0	0	0	0	0	1
RightHandRing3	0	0	0	0	0	0	1
RightHandRing4	0	0	0	0.1270826818	1.220105684	11.26838389	1
RightHandPinky1	0	0	0	-0.1150589234	1.798482907	-6.335472682	1
RightHandPinky2	0	0	0	0	0	0	1
RightHandPinky3	0	0	0	0	0	0	1
RightHandPinky4	0	0	0	0.09523892401	1.784551098	6.714729621	1
RH_WP	0	0	0	4.903613047e-012	2.776477095	-2.674328027	1
RightForeArmRoll	0	0	0	0	0	0	1
RightArmRoll	0	0	0	0	2.17619649e-005	0	1
Neck	0	0	0	-0.5911792768	-0.1801087749	-21.21735117	1
Neck1	0	0	0	0.6101271651	0.09836090716	7.78649821	1
Head	0	0	0	0	-0	9.996624533	1
Jaw	0	0	0	-0.06946325017	0.08775954594	-129.2006421	1
L_Eye	0	0	0	90.83837297	89.99999895	0	1
R_Eye_Socket	0	0	0	90.83837297	89.99999895	0	1
L_Eye_Socket	0	0	0	90.83837262	89.99999895	0	1
R_Eye	0	0	0	90.83837262	89.99999895	0	1
BK_WEP1	0	0	0	94.2740542	90	0	1
RightUpLeg	0	0	0	0.1245552539	2.943081661	-2.111172621	1
RightLeg	0	0	0	1.770668338e-011	-0.4645708947	-3.190265207	1
RightFoot	0	0	0	-3.427050049	1.138743235	66.87228657	1
RightToeBase	0	0	0	-0.1150285401	1.405135968	23.664964	1
RightToeEnd	0	0	0	-4.55797616e-013	86.14893154	4.67902715	1
RightLegRoll	0	0	0	0.0001763058084	-5.425123434e-010	1.211761319e-009	1
RightUpLegRoll	0	0	0	2.663171688e-005	1.239300521e-011	-7.832936944e-012	1
[Hips]
16	-41.69087219	893.4292603	3417.89209	20.34987259	-2.450557947	-5.366500378	1.0
17	-44.78029633	891.3308716	3572.521484	21.92632866	1.408786297	-5.118543625	1.0
[LeftUpLeg]
16	-47.72201538	-9.041707993	-88.56562805	-13.79986095	-11.15990067	33.3519783	1.0
17	-47.72185516	-9.041805267	-88.56562805	-6.74375391	-5.155905724	21.600214	1.0
[LeftLeg]
16	428.657196	-0.0001569825836	-0.000176447953	8.287026405	10.17635536	-54.8324852	1.0
17	428.657196	-0.000117178286	-0.000176447953	8.813472748	9.568776131	-51.86954498	1.0
[LeftFoot]
16	444.4221191	-0.06445625424	0.8579967022	8.525097847	-2.506222963	26.17453957	1.0
17	444.4219971	-0.07054736465	0.9373858571	5.04037714	-3.766116142	35.82638168	1.0
[LeftToeBase]
16	155.2786407	-5.336348841e-005	6.297896562e-006	-0.04958608747	-0.002838183194	0.7437828183	1.0
17	155.278595	-0.0001254213421	6.297896562e-006	-0.2215061933	-0.0117497202	3.304061413	1.0
[LeftToeEnd]
16	87.1754837	4.440892099e-015	-1.243449788e-013	0	0	0	1.0
17	87.1754837	4.440892099e-015	-1.243449788e-013	0	0	0	1.0
[LeftLegRoll]
16	198.5738983	-8.146071923e-005	7.328816537e-006	3.777326107	-0.1997417808	-0.01497640088	1.0
17	198.5738983	-8.146071923e-005	7.328816537e-006	4.183726788	-0.2182404995	-0.01639271341	1.0
[LeftUpLegRoll]
16	166.7200317	1.395718391e-005	-6.571605809e-006	2.000703887e-007	1.379017613e-005	1.322874255e-006	1.0
17	166.7197571	1.395718391e-005	-6.571605809e-006	2.000703887e-007	1.379017613e-005	1.322874255e-006	1.0
[Spine]
16	66.67904663	-8.790411949	-2.70905166e-005	-3.404314518	3.439110279	-12.55877113	1.0
17	66.67904663	-8.790084839	-2.70905166e-005	-3.587959528	0.1863952875	-11.97540474	1.0
[Spine1]
16	120.7898407	-3.674251275e-006	5.73854777e-006	-6.094183445	1.919972897	-0.8686469793	1.0
17	120.7898407	-3.674251275e-006	5.73854777e-006	-7.518499374	1.074240804	-0.8783749342	1.0
[Spine2]
16	97.34932709	-4.488672857e-005	3.778036216e-006	-6.167383194	1.326915145	-0.924977541	1.0
17	97.34932709	-4.488672857e-005	3.778036216e-006	-7.520078659	0.3832575679	-0.8817281723	1.0
[LeftShoulder]
16	193.5426483	-57.9708252	-41.53356171	8.348611832	3.013231039	-5.749258041	1.0
17	193.5426483	-57.9708252	-41.53356171	6.868536472	1.280954003	-3.633178949	1.0
[LeftArm]
16	156.8790588	9.497231076e-005	2.842262984e-005	22.25435638	-31.48819733	-57.7858963	1.0
17	156.8789978	-2.539347588e-005	2.842262984e-005	16.5553093	-39.85749817	-60.95149994	1.0
[LeftForeArm]
16	274.698761	0.00307591958	-0.0001052560838	-1.643326998	-6.746514797	-59.94366455	1.0
17	274.6989136	0.00307591958	-0.0001052560838	-1.658492565	-5.872494698	-64.10678864	1.0
[LeftForeArmRoll]
16	107.0116882	8.881784197e-014	2.842170943e-013	8.362234116	0	0	1.0
17	107.0116882	8.881784197e-014	2.842170943e-013	7.854363441	0	0	1.0
[LeftHand]
16	266.6984253	2.734498412e-005	4.685075055e-006	10.45279312	-15.39569473	4.707967281	1.0
17	266.6984863	7.773805009e-006	4.685075055e-006	9.81795311	-18.49933052	1.933194399	1.0
[LeftHandThumb1]
16	31.59936905	-14.66598034	50.44494629	-0.0128383562	-13.85647297	-3.613444328	1.0
17	31.59936905	-14.66598034	50.44494629	-0.0128383562	-13.85654926	-3.613528252	1.0
[LeftHandThumb2]
16	53.38054276	0.000103336497	0.0001156853396	-0.0002536315878	0.3000540137	-0.0004624828871	1.0
17	53.38054276	0.000103336497	0.0001156853396	-0.0002536315878	0.3000540137	-0.001446195762	1.0
[LeftHandThumb3]
16	33.23007965	5.394171239e-005	-4.933813034e-005	-0.0004044212401	0.0001216111559	0.0005049755564	1.0
17	33.23007965	5.394171239e-005	-4.933813034e-005	-0.0004044212401	0.0003673768661	0.002601682674	1.0
[LeftHandThumb4]
16	41.64096832	4.604625792e-005	0.0002003078407	-0.0005963343428	0.0001761054446	-7.360037853e-005	1.0
17	41.64096832	4.604625792e-005	0.0002003078407	-0.0005963343428	0.0001761054446	-7.360037853e-005	1.0
[LeftHandIndex1]
16	107.8285828	-7.018170834	35.98754883	-5.758398765e-005	9.829888586e-005	-6.681587219	1.0
17	107.8285828	-7.018170834	35.98754883	-5.758398765e-005	9.829888586e-005	-6.6820364	1.0
[LeftHandIndex2]
16	41.10884857	5.474074715e-005	-1.086752854e-005	-0.0001180831969	-0.02173396386	-6.720691204	1.0
17	41.10884857	5.474074715e-005	-1.086752854e-005	-0.0001180831969	-0.02173396386	-6.720591545	1.0
[LeftHandIndex3]
16	28.81001282	-6.260780356e-005	3.645908873e-005	-0.0001884985686	-0.02170027606	-6.723316193	1.0
17	28.81001282	-6.260780356e-005	3.645908873e-005	-0.0001884985686	-0.02159617469	-6.721787453	1.0
[LeftHandIndex4]
16	28.71860313	-4.528491991e-005	8.226938371e-005	-0.0005197712453	7.277534314e-005	0.0001651600323	1.0
17	28.71860313	-4.528491991e-005	8.226938371e-005	-0.0005197712453	7.277534314e-005	0.0001651600323	1.0
[LeftHandMiddle1]
16	108.9267883	-1.06894958	10.86118317	-0.0008985737804	-0.02308218554	-6.721242905	1.0
17	108.9267883	-1.06894958	10.86118317	-0.0008985737804	-0.02308218554	-6.721242905	1.0
[LeftHandMiddle2]
16	50.4886055	-2.162819874e-005	-5.554509244e-006	-0.0009549590177	-0.02308406867	-6.728996277	1.0
17	50.48860931	-2.162819874e-005	-5.554509244e-006	-0.0009549590177	-0.02308406867	-6.728996277	1.0
[LeftHandMiddle3]
16	33.42190552	-2.609414878e-005	7.530885341e-005	-0.001054303022	-0.0230752416	-6.721436024	1.0
17	33.42190552	-2.609414878e-005	7.530885341e-005	-0.001054303022	-0.02297910489	-6.721481323	1.0
[LeftHandMiddle4]
16	30.04674721	2.60834604e-005	1.565556158e-005	-0.0005761348875	-2.442478035e-005	0.0001658203546	1.0
17	30.04674721	2.60834604e-005	1.565556158e-005	-0.0005761348875	-2.442478035e-005	0.0001658203546	1.0
[LeftHandRing1]
16	109.0503845	-2.691740036	-12.87386799	-0.001201222069	-0.02290125191	-6.721601486	1.0
17	109.0503845	-2.691740036	-12.87386799	-0.001201222069	-0.02290125191	-6.721643925	1.0
[LeftHandRing2]
16	46.28149414	0.4491938949	-0.04898542166	-0.001470138668	-0.02505244501	-6.720882893	1.0
17	46.28149414	0.4491938949	-0.04898542166	-0.001470138668	-0.02505244501	-6.719528198	1.0
[LeftHandRing3]
16	29.52356529	-0.4491446018	0.04897363856	-0.001541288686	-0.02483464777	-6.722370625	1.0
17	29.52356529	-0.4491446018	0.04897363856	-0.001541288686	-0.02509532124	-6.724915028	1.0
[LeftHandRing4]
16	29.06702423	-8.604244795e-005	2.019225394e-005	-0.0005856125499	-1.556767347e-005	0.0001773452823	1.0
17	29.06702423	-8.604244795e-005	2.019225394e-005	-0.0005856125499	-1.556767347e-005	0.0001773452823	1.0
[LeftHandPinky1]
16	104.5423508	-10.75370884	-37.43103409	-0.002290672623	-0.02572079748	-6.721384048	1.0
17	104.5423508	-10.75370884	-37.43103409	-0.002290672623	-0.02572423592	-6.721844196	1.0
[LeftHandPinky2]
16	32.66354752	4.504872413e-005	-1.192557738e-005	-0.002319539664	-0.02607806399	-6.737620831	1.0
17	32.66361237	4.504872413e-005	-1.192557738e-005	-0.002319539664	-0.02607806399	-6.736863613	1.0
[LeftHandPinky3]
16	25.58556747	-0.0002099084086	6.552904779e-006	-0.002331972588	-0.02636537328	-6.721468449	1.0
17	25.58556747	-0.0002099084086	6.552904779e-006	-0.002331972588	-0.02623403817	-6.721598625	1.0
[LeftHandPinky4]
16	24.98874855	3.370519698e-005	2.254853462e-005	-0.0005195768899	8.110216731e-005	0.0001606175356	1.0
17	24.98874855	3.370519698e-005	2.254853462e-005	-0.0005195768899	8.110216731e-005	0.0001606175356	1.0
[LH_WP]
16	120	-50	-1.776356839e-014	0	0	0	1.0
17	120	-50	-1.776356839e-014	0	0	0	1.0
[LeftArmRoll]
16	132.8950806	0.0001548789442	5.654677079e-005	-2.663570626e-007	-4.568414909e-007	4.582375823e-006	1.0
17	132.8952179	0.0001548789442	5.654677079e-005	-2.663570626e-007	-4.568414909e-007	4.582375823e-006	1.0
[RightShoulder]
16	193.5422058	-57.97074127	41.53350449	14.3551712	0.3721011579	-16.91448212	1.0
17	193.5422058	-57.97074127	41.53350449	14.46554375	0.8378223777	-17.04362488	1.0
[RightArm]
16	-156.8790588	-0.001020917087	9.682989912e-005	16.59574127	17.98781586	-48.49590683	1.0
17	-156.8792725	-0.001020917087	9.682989912e-005	15.97861481	26.18089294	-45.89591599	1.0
[RightForeArm]
16	-274.6986694	-0.003878796706	5.878129014e-005	-1.47483933	-1.388343692	-62.25714493	1.0
17	-274.6986694	-0.004006056581	5.878129014e-005	-1.477351069	-0.4194536805	-61.44101715	1.0
[RightHand]
16	-266.6994629	-0.003131252714	0.0008661032189	8.598020554	-13.13524055	17.6627388	1.0
17	-266.6992798	-0.003131252714	0.000771116931	9.936179161	-11.8746624	18.26481628	1.0
[RightHandThumb1]
16	-31.59879494	14.66024399	-50.44496155	-0.01169356145	-13.49968052	-2.857362986	1.0
17	-31.59879494	14.66024399	-50.44496155	-0.01155993156	-13.49968052	-2.857867002	1.0
[RightHandThumb2]
16	-53.38214111	-0.001599387266	-0.006656229496	0.0003864055034	-0.0002235676366	-0.00124805863	1.0
17	-53.38214111	-0.001599387266	-0.006656229496	0.0003864055034	-0.0002235676366	-2.815532207e-005	1.0
[RightHandThumb3]
16	-33.22888565	-6.998400931e-005	0.005473189522	0.001325118588	-0.0002898220846	0.0001106346463	1.0
17	-33.22888565	-6.998400931e-005	0.005371356849	0.001325118588	-0.0004678633413	-0.0005460765096	1.0
[RightHandThumb4]
16	-41.64128876	6.732883048e-005	-0.001961095491	0.001914707827	-0.0001924577227	-0.0005631271051	1.0
17	-41.64128876	6.732883048e-005	-0.001961095491	0.001914707827	-0.0001924577227	-0.0005631271051	1.0
[RightHandIndex1]
16	-107.8279266	7.018690109	-35.9875946	0.0003881388693	-0.02163384296	-6.721485138	1.0
17	-107.8279266	7.018690109	-35.9875946	0.0003881388693	-0.02163384296	-6.72091341	1.0
[RightHandIndex2]
16	-41.10917664	-0.003337909468	4.21212826e-005	0.0005543127772	-0.02149415016	-6.72133112	1.0
17	-41.10917664	-0.003337909468	4.21212826e-005	0.0005543127772	-0.02149415016	-6.72133112	1.0
[RightHandIndex3]
16	-28.810215	0.001759051112	-9.90186436e-006	0.001298090094	-0.02093804255	-6.722069263	1.0
17	-28.810215	0.001759051112	-9.90186436e-006	0.001298090094	-0.02082896046	-6.724080086	1.0
[RightHandIndex4]
16	-28.71785355	-0.003107428085	1.549930312e-005	0.00226092455	0.0006115095457	0.0002031581535	1.0
17	-28.71785355	-0.003107428085	1.549930312e-005	0.00226092455	0.0006115095457	0.0002031581535	1.0
[RightHandMiddle1]
16	-108.9268646	1.063620448	-10.86122894	0.0005381311639	-0.02275776118	-6.721518993	1.0
17	-108.9268646	1.063620448	-10.86122894	0.0005381311639	-0.02275776118	-6.721180439	1.0
[RightHandMiddle2]
16	-50.48834991	0.001322705648	-2.671446418e-005	0.0006534365821	-0.02252226323	-6.729118824	1.0
17	-50.48843765	0.001322705648	-2.671446418e-005	0.0006534365821	-0.02252226323	-6.729483128	1.0
[RightHandMiddle3]
16	-33.42206192	-0.003336391877	-3.798639591e-005	0.001414699247	-0.02188429981	-6.720612049	1.0
17	-33.42206192	-0.003336391877	-3.798639591e-005	0.001414699247	-0.02221000008	-6.721096992	1.0
[RightHandMiddle4]
16	-30.04626083	0.000816694228	5.615002738e-005	0.002405878855	0.00054273149	0.0001783560583	1.0
17	-30.04626083	0.000816694228	5.615002738e-005	0.002405878855	0.00054273149	0.0001783560583	1.0
[RightHandRing1]
16	-109.0495605	2.691092491	12.87384129	0.0005415810738	-0.02258249745	-6.721644878	1.0
17	-109.0495605	2.691092491	12.87384129	0.0005415810738	-0.02258249745	-6.721745491	1.0
[RightHandRing2]
16	-46.2803688	-0.4511589408	0.04896107689	0.0006064998452	-0.02426320314	-6.721431255	1.0
17	-46.2803688	-0.4511589408	0.04896107689	0.0006064998452	-0.02426320314	-6.721527576	1.0
[RightHandRing3]
16	-29.52510643	0.4504946172	-0.04901462793	0.001238655415	-0.02360045724	-6.721551895	1.0
17	-29.52510643	0.4504946172	-0.04901462793	0.001238655415	-0.02338344418	-6.721030235	1.0
[RightHandRing4]
16	-29.06623459	-0.005823877174	7.770192315e-005	0.002492689295	0.0005187573261	0.0001824576757	1.0
17	-29.06623459	-0.005823877174	7.770192315e-005	0.002492689295	0.0005187573261	0.0001824576757	1.0
[RightHandPinky1]
16	-104.5424042	10.74948311	37.43106461	0.0005379587528	-0.02511667274	-6.721640587	1.0
17	-104.542305	10.74948311	37.43106461	0.0005379587528	-0.02511667274	-6.72172308	1.0
[RightHandPinky2]
16	-32.66365051	0.005212226883	-0.0001216184464	0.0007540693623	-0.02490916476	-6.737203121	1.0
17	-32.66365051	0.005212226883	-0.0001216184464	0.0007540693623	-0.02490916476	-6.737061977	1.0
[RightHandPinky3]
16	-25.58576584	-0.002913864329	9.440085705e-005	0.001331240055	-0.02440559864	-6.721746445	1.0
17	-25.58576584	-0.002913864329	9.440085705e-005	0.001331240055	-0.02420537546	-6.721758366	1.0
[RightHandPinky4]
16	-24.98809814	-0.004919932224	6.394286174e-006	0.002199850045	0.0006204504753	0.0001916140027	1.0
17	-24.98809814	-0.004919932224	6.394286174e-006	0.002199850045	0.0006204504753	0.0001916140027	1.0
[RH_WP]
16	-90.81784058	44.75069046	-9.102725983	-0.1271575838	-2.744757175	2.677313566	1.0
17	-90.81784058	44.75069046	-9.102725983	-0.1271575838	-2.744757175	2.677313566	1.0
[RightForeArmRoll]
16	-107.0118866	-0.003058596514	1.442765006e-005	6.878415585	0	0	1.0
17	-107.0118866	-0.003058596514	1.442765006e-005	7.948942661	0	0	1.0
[RightArmRoll]
16	-132.8954163	0.0004744274192	0.0001270235807	-2.260197107e-006	-2.431532664e-007	7.477638519e-006	1.0
17	-132.8952789	0.0004744274192	3.366529563e-005	-2.260197107e-006	-2.431532664e-007	7.477638519e-006	1.0
[Neck]
16	269.5571594	8.494591748e-005	-5.644499197e-006	-0.06126292795	-2.034846067	3.392707348	1.0
17	269.5569153	8.494591748e-005	-5.644499197e-006	0.139277339	-1.898209095	3.885557175	1.0
[Neck1]
16	55.64798355	8.853046165e-005	1.173807505e-005	-0.3239659369	-2.190490246	3.349485636	1.0
17	55.64798355	8.853046165e-005	1.173807505e-005	-0.1026175022	-2.068331957	3.851933479	1.0
[Head]
16	48.27834702	4.024281952e-005	-1.697512198e-005	-2.960033178	-3.951132774	12.27969933	1.0
17	48.27834702	4.024281952e-005	-1.697512198e-005	-1.546059728	-3.040615797	12.15619564	1.0
[Jaw]
16	16.62527084	-28.49801064	-6.624434263e-007	0	0	0	1.0
17	16.62527084	-28.49801064	-6.624434263e-007	0	0	0	1.0
[L_Eye]
16	62.91468811	-92.7388916	-39.95373535	0	0	0	1.0
17	62.91468811	-92.7388916	-39.95373535	0	0	0	1.0
[R_Eye_Socket]
16	62.91468811	-92.7388916	39.94999695	0	0	0	1.0
17	62.91468811	-92.7388916	39.94999695	0	0	0	1.0
[L_Eye_Socket]
16	62.91468811	-92.7388916	-39.95373535	0	0	0	1.0
17	62.91468811	-92.7388916	-39.95373535	0	0	0	1.0
[R_Eye]
16	62.91468811	-92.7388916	39.94999695	0	0	0	1.0
17	62.91468811	-92.7388916	39.94999695	0	0	0	1.0
[BK_WEP1]
16	159.8800049	132.8500061	-1.533420634e-012	0	0	0	1.0
17	159.8800049	132.8500061	-1.533420634e-012	0	0	0	1.0
[RightUpLeg]
16	-47.72180176	-9.041695595	88.56574249	-24.11275101	10.13293648	37.48459625	1.0
17	-47.72180176	-9.041695595	88.56573486	-21.20939636	11.2779789	55.58696365	1.0
[RightLeg]
16	-428.6571045	-0.0001716098486	0.0004888930707	-8.407485962	-2.939866066	-130.4230957	1.0
17	-428.6571045	-2.373728057e-005	0.0004888930707	-9.794319153	-3.543394804	-129.713028	1.0
[RightFoot]
16	-444.4202271	0.04884244502	1.315156817	9.717151642	14.07551003	-11.89370918	1.0
17	-444.4192505	0.06088149175	1.496859074	10.5895586	14.85844421	-5.963122368	1.0
[RightToeBase]
16	-155.2785034	7.428698154e-006	-2.909067916e-005	0.7339933515	0.05979083106	-0.1824543774	1.0
17	-155.2784882	7.428698154e-006	-2.909067916e-005	0.9055800438	0.07369859517	-0.2249245495	1.0
[RightToeEnd]
16	-87.17578125	-5.002963007e-005	-0.0004951364244	0	0	0	1.0
17	-87.17578125	-5.002963007e-005	-0.0004951364244	0	0	0	1.0
[RightLegRoll]
16	-198.5740509	-2.484767901e-005	-0.0004470431304	-6.608827114	0.3067995608	-0.01135338377	1.0
17	-198.5742188	-2.484767901e-005	-0.0004470431304	-7.529619694	0.3491562009	-0.01416236721	1.0
[RightUpLegRoll]
16	-166.7200317	-0.0001194978977	-3.218563143e-005	1.387047269e-005	-1.121582272e-006	7.828991329e-006	1.0
17	-166.7200317	2.217058864e-005	-3.218563143e-005	1.387047269e-005	-1.121582272e-006	7.828991329e-006	1.0
[EndOfFile]
